<?xml version="1.0" standalone="no"?>
<!DOCTYPE svg PUBLIC "-//W3C//DTD SVG 20010904//EN"
 "http://www.w3.org/TR/2001/REC-SVG-20010904/DTD/svg10.dtd">
<svg version="1.0" xmlns="http://www.w3.org/2000/svg"
 width="1024.000000pt" height="1024.000000pt" viewBox="0 0 1024.000000 1024.000000"
 preserveAspectRatio="xMidYMid meet">

<g transform="translate(0.000000,1024.000000) scale(0.100000,-0.100000)"
fill="#000000" stroke="none">
<path d="M1217 6626 c-62 -17 -116 -61 -147 -122 l-25 -48 0 -1232 0 -1231 30
-49 c19 -30 49 -60 79 -79 l49 -30 1256 0 1256 0 45 30 c24 17 58 50 75 73
l30 44 0 1246 0 1247 -28 48 c-33 56 -84 92 -150 107 -74 16 -2407 12 -2470
-4z m2396 -170 c18 -7 43 -26 57 -41 l25 -27 3 -1140 c3 -1281 8 -1189 -72
-1228 -42 -20 -55 -20 -1172 -20 -1055 0 -1131 1 -1163 18 -19 9 -44 30 -55
45 -21 28 -21 31 -21 1172 0 1141 0 1144 21 1172 11 15 36 36 55 45 32 17 108
18 1162 18 933 0 1133 -2 1160 -14z"/>
<path d="M2359 6296 c-2 -2 -24 -6 -49 -9 -191 -23 -400 -119 -551 -255 -245
-220 -379 -589 -335 -924 59 -449 352 -790 783 -910 67 -19 103 -22 258 -22
167 1 187 3 270 28 111 34 254 104 339 168 143 107 278 281 346 445 57 135 72
213 77 394 6 187 -5 269 -58 412 -44 123 -40 120 -101 60 l-52 -52 22 -73 c39
-134 46 -181 45 -318 -2 -207 -49 -366 -158 -530 -47 -71 -162 -186 -236 -237
-72 -50 -179 -100 -264 -125 -108 -31 -342 -33 -450 -4 -145 39 -305 129 -400
226 l-49 50 53 54 c50 51 55 53 95 49 24 -3 52 0 64 6 17 9 41 -2 163 -74 129
-76 143 -88 155 -122 7 -21 30 -53 50 -72 34 -31 40 -33 90 -29 39 3 61 11 80
29 36 33 57 77 50 104 -5 21 10 37 108 120 63 53 159 138 213 190 91 88 101
95 139 95 52 0 101 32 127 83 25 49 16 97 -27 144 -28 31 -40 37 -87 40 -42 3
-61 0 -87 -17 -41 -25 -66 -81 -59 -131 5 -37 3 -39 -137 -171 -78 -74 -167
-153 -198 -177 -52 -39 -61 -42 -96 -36 -24 4 -54 1 -81 -8 l-42 -15 -134 81
c-115 70 -135 86 -135 107 0 35 -34 86 -72 111 -47 29 -119 22 -158 -16 -31
-30 -53 -82 -48 -113 2 -12 -18 -41 -50 -77 -62 -67 -54 -72 -117 60 -63 132
-88 242 -88 395 -1 153 13 225 64 354 123 310 382 515 703 557 239 31 476 -35
677 -190 l26 -20 51 52 52 53 -67 50 c-138 103 -253 154 -429 189 -104 22
-271 34 -285 21z"/>
<path d="M3265 6037 c-12 -7 -209 -204 -440 -439 -230 -236 -421 -428 -424
-428 -3 0 -96 91 -208 201 l-203 202 -47 -6 c-84 -9 -126 -84 -89 -155 14 -25
168 -181 403 -405 96 -92 103 -97 145 -97 l43 -1 473 478 c265 268 480 492
488 511 40 89 -60 187 -141 139z"/>
<path d="M6880 6594 c-352 -68 -615 -321 -705 -679 -23 -87 -26 -121 -26 -265
0 -144 3 -178 26 -265 80 -316 291 -550 567 -628 271 -77 526 -65 723 35 122
63 251 179 315 284 40 66 92 215 80 228 -4 4 -64 14 -132 22 -67 7 -144 16
-170 19 l-47 6 -31 -65 c-39 -83 -107 -151 -190 -190 -61 -28 -74 -31 -201
-34 -194 -6 -281 22 -386 121 -59 56 -103 125 -134 214 -30 84 -39 329 -15
435 48 216 198 380 384 419 84 17 264 7 330 -19 101 -39 183 -128 218 -236 9
-28 20 -55 25 -60 8 -9 326 60 343 76 15 13 -11 106 -55 196 -100 201 -296
340 -547 388 -91 17 -277 16 -372 -2z"/>
<path d="M4458 6569 c-17 -9 -18 -64 -18 -913 0 -780 2 -905 15 -916 17 -14
320 -21 348 -8 16 8 17 35 17 349 l0 340 127 -3 127 -3 87 -145 c47 -80 139
-234 203 -342 l117 -198 215 0 c175 0 214 3 214 14 0 7 -98 171 -218 363
l-219 350 71 36 c129 64 229 169 283 297 26 61 27 74 28 215 0 132 -3 157 -22
207 -83 213 -254 324 -548 358 -119 13 -804 13 -827 -1z m827 -343 c70 -18
110 -41 139 -79 36 -47 46 -80 47 -156 2 -109 -41 -182 -131 -225 -41 -19 -65
-21 -282 -24 l-238 -4 0 251 0 251 208 0 c140 0 223 -5 257 -14z"/>
<path d="M8000 6416 c0 -85 3 -161 6 -170 5 -14 38 -16 265 -16 l259 0 0 -740
c-1 -407 1 -744 5 -750 4 -6 73 -10 180 -10 148 0 174 2 179 16 3 9 6 346 6
750 l0 734 254 0 c222 0 255 2 260 16 3 9 6 85 6 170 l0 154 -710 0 -710 0 0
-154z"/>
<path d="M4655 4473 c-63 -8 -122 -34 -158 -71 -44 -45 -57 -78 -57 -142 0
-120 52 -167 234 -213 109 -28 143 -46 152 -82 16 -65 -27 -105 -115 -105 -57
0 -100 28 -121 80 -12 30 -13 30 -88 30 l-75 0 6 -40 c3 -22 16 -59 30 -83 79
-135 376 -151 480 -27 77 91 47 238 -59 297 -23 13 -85 34 -138 48 -109 28
-144 47 -152 81 -16 62 28 104 109 104 50 0 88 -24 112 -71 15 -27 19 -29 80
-29 l65 0 0 33 c0 46 -39 118 -79 144 -51 34 -153 55 -226 46z"/>
<path d="M6290 4469 c-131 -14 -200 -88 -200 -211 0 -126 52 -165 299 -228
132 -34 115 -170 -22 -170 -65 0 -113 27 -133 75 l-14 35 -74 0 -73 0 8 -52
c15 -96 95 -160 221 -178 121 -17 243 18 294 85 24 32 29 49 32 109 2 59 -1
77 -20 111 -38 65 -82 87 -270 135 -88 23 -124 86 -80 140 14 18 32 24 75 28
66 5 97 -10 129 -64 19 -33 22 -34 85 -34 l66 0 -5 44 c-15 126 -139 195 -318
175z"/>
<path d="M5210 4455 c0 -2 53 -101 118 -217 l117 -213 5 -140 5 -140 78 -2 77
-1 0 131 0 132 119 220 c65 121 115 224 111 228 -4 4 -40 7 -80 5 l-74 -3 -76
-141 -75 -141 -76 141 -75 141 -87 3 c-48 1 -87 0 -87 -3z"/>
<path d="M6879 4455 c-6 -48 1 -119 12 -126 8 -5 56 -9 106 -9 l93 0 2 -287 3
-288 75 0 75 0 3 291 2 291 79 -5 c44 -2 91 -2 105 2 25 6 26 10 26 71 l0 65
-290 0 c-159 0 -290 -2 -291 -5z"/>
<path d="M7750 4110 c0 -322 1 -350 18 -359 9 -5 116 -8 237 -7 l220 1 5 63
c3 35 3 65 1 68 -2 2 -73 4 -158 4 l-153 0 0 80 0 80 145 0 146 0 -3 58 -3 57
-142 3 -143 3 0 79 0 80 155 0 155 0 0 70 0 70 -240 0 -240 0 0 -350z"/>
<path d="M8562 4103 l3 -358 65 0 65 0 3 238 c1 146 6 237 12 237 6 0 10 -5
10 -11 0 -16 170 -441 183 -457 7 -8 28 -12 61 -10 l50 3 49 120 c45 114 112
276 139 340 11 26 14 -4 18 -215 l5 -245 65 0 65 0 3 358 2 357 -102 0 c-57 0
-108 -4 -114 -8 -9 -6 -51 -114 -176 -452 -8 -22 -21 6 -94 204 -47 127 -90
236 -96 243 -7 9 -41 13 -114 13 l-104 0 2 -357z"/>
</g>
</svg>
